# xmcd
#
# Track frame offsets:
#	150
#	13266
#	26470
#	39688
#	55990
#	67914
#	80345
#	95238
#	109488
#	123744
#	136290
#	150051
#
# Disc length: 2206 seconds
#
# Revision: 1
# Processed by: cddbd v1.5.2PL0 Copyright (c) Steve Scherf et al.
# Submitted via: audiograbber 1.83.01
#
DISCID=9e089c0c
DTITLE=Ander e Fael - Morto Vivo
DYEAR=2013
DGENRE=Sertanejo
TTITLE0=Morto Vivo
TTITLE1=Me Namora
TTITLE2=Só porque ela é Gostosa
TTITLE3=Flores
TTITLE4=Beijo de Morango
TTITLE5=Balançando
TTITLE6=Mil Anos
TTITLE7=Vou pra Balada
TTITLE8=Apaixonado
TTITLE9=Sem nada pra fazer
TTITLE10=Garota Esnobe
TTITLE11=Ta na Cara
EXTD=Sertanejo Universitario
EXTT0=
EXTT1=
EXTT2=
EXTT3=
EXTT4=
EXTT5=
EXTT6=
EXTT7=
EXTT8=
EXTT9=
EXTT10=
EXTT11=
PLAYORDER=
